<mxfile host="app.diagrams.net" modified="2023-11-10T01:57:15.040Z" agent="Mozilla/5.0 (Macintosh; Intel Mac OS X 10_15_7) AppleWebKit/537.36 (KHTML, like Gecko) Chrome/118.0.0.0 Safari/537.36" version="22.1.0" etag="n84cO7PDS-DafTK8tg3L" type="github">
  <diagram name="第 1 页" id="IfFoHn18dwaW7D5wKp29">
    <mxGraphModel>
      <root>
        <mxCell id="0" />
        <mxCell id="1" parent="0" />
      </root>
    </mxGraphModel>
  </diagram>
</mxfile>
